PathFileType	4	(X/Y/Z)	/Users/mathieubourgeois/Desktop/Analyse/Traitement/Sujet_02/Transformed_Static_Sujet_02_Tpose.trc
DataRate	CameraRate	NumFrames	NumMarkers	Units	OrigDataRate	OrigDataStartFrame	OrigNumFrames
120.000000	120.000000	4	36	mm	120.000000	115	308
Frame#	Time	RFHD			RANE			STRN			LANI			LKNE			T10			RHUM			RWRB			C7			LFWT			LTOE			RTOE			LWRA			LBWT			RBWT			RFWT			LKNI			RKNI			RKNE			LANE			RANI			LHEE			RHEE			LHUM			LRAD			RRAD			RWRA			LWRB			LFHD			LBHD			RBHD			RSHO			LSHO			CLAV			LCAR			RCAR			
		X1	Y1	Z1	X2	Y2	Z2	X3	Y3	Z3	X4	Y4	Z4	X5	Y5	Z5	X6	Y6	Z6	X7	Y7	Z7	X8	Y8	Z8	X9	Y9	Z9	X10	Y10	Z10	X11	Y11	Z11	X12	Y12	Z12	X13	Y13	Z13	X14	Y14	Z14	X15	Y15	Z15	X16	Y16	Z16	X17	Y17	Z17	X18	Y18	Z18	X19	Y19	Z19	X20	Y20	Z20	X21	Y21	Z21	X22	Y22	Z22	X23	Y23	Z23	X24	Y24	Z24	X25	Y25	Z25	X26	Y26	Z26	X27	Y27	Z27	X28	Y28	Z28	X29	Y29	Z29	X30	Y30	Z30	X31	Y31	Z31	X32	Y32	Z32	X33	Y33	Z33	X34	Y34	Z34	X35	Y35	Z35	X36	Y36	Z36	

116	0.9583333333333334	-156.8919677734376	1797.183349609375	377.063995361328	-226.0734405517578	102.0531616210938	237.5530853271484	-42.02373886108403	1413.69189453125	426.1826171874999	76.70731353759763	120.4436111450195	269.6924438476562	155.3587799072265	557.6082763671875	246.2030334472656	-46.14910125732424	1380.948120117188	177.4662322998046	-500.6406555175782	1507.90087890625	240.7680053710936	-778.7664184570312	1588.643676757812	258.7831726074216	-48.73407745361331	1621.009887695312	227.0191192626952	89.53596496582026	1109.700439453125	408.1734924316406	172.9400787353515	59.0600395202637	457.3219299316406	-252.5018768310547	59.72380065917972	459.5650329589843	712.0545043945312	1493.524536132812	314.944091796875	14.52145481109616	1144.271362304688	225.9820251464843	-106.6963272094727	1146.761108398438	227.9968566894531	-187.8990020751954	1121.161010742188	405.1618041992187	61.6560134887695	517.28564453125	279.5171203613281	-132.5390319824219	527.626220703125	290.9227905273437	-223.0490112304688	580.2399291992188	253.8376922607421	160.1421508789062	101.7491683959961	229.7578735351563	-145.4076843261719	119.8736953735352	279.0545959472656	105.5437850952148	70.52056884765626	177.4123992919922	-161.9296875	64.68309783935548	186.729507446289	429.7277526855468	1466.278076171875	322.9453430175781	437.6995544433593	1520.036743164062	274.2688293457031	-504.4885864257813	1464.943115234375	307.5933532714842	-774.7108154296875	1528.5107421875	230.600372314453	707.0574951171875	1560.448120117188	341.1351928710938	-8.901892662048391	1798.022705078125	417.0610961914061	27.06440353393551	1747.21533203125	280.1268615722655	-133.529037475586	1743.603637695312	253.0673980712889	-212.9446258544922	1596.22314453125	263.619415283203	121.3787689208984	1615.82421875	286.6657104492186	-32.30960083007817	1588.748291015625	382.4254150390624	817.3478393554688	1528.075927734375	303.119384765625	-884.324951171875	1558.160034179688	212.728805541992	
117	0.9666666666666667	-156.9390106201172	1797.174682617188	377.031768798828	-226.0762176513672	102.0322494506836	237.5598602294922	-42.05700683593755	1413.686889648438	426.2018737792968	76.71022033691403	120.4532089233399	269.708251953125	155.371337890625	557.5930786132812	246.2086791992188	-46.18555450439455	1380.942749023438	177.4767303466796	-500.7105712890626	1507.983642578125	240.7898101806639	-778.7968139648438	1588.8154296875	258.9416503906248	-48.77900314331058	1621.0107421875	227.0321807861327	89.55337524414057	1109.690795898438	408.1781311035156	172.9404144287109	59.03886413574222	457.329833984375	-252.504867553711	59.71208572387698	459.5790405273437	712.0137329101562	1493.459106445312	314.8268737792969	14.55099105834958	1144.261962890625	225.9779052734374	-106.683822631836	1146.751831054688	228.0080108642578	-187.8912048339844	1121.130737304688	405.1669921874999	61.66777038574215	517.2752685546875	279.5151367187499	-132.5313568115235	527.5718994140625	290.8784790039062	-223.0187530517578	580.2103881835938	253.8267059326171	160.1332397460937	101.7169876098633	229.781234741211	-145.4052886962891	119.8551483154297	279.0615234375	105.5327606201172	70.51024627685548	177.4093933105469	-161.9303588867188	64.67243957519533	186.728759765625	429.6791381835937	1466.2197265625	322.8895263671874	437.6435852050781	1520.0048828125	274.2177734374999	-504.5440979003907	1465.015625	307.5664062499998	-774.7561645507812	1528.720703125	230.6727752685545	707.0220947265625	1560.343994140625	341.10986328125	-8.960288047790579	1797.90966796875	417.0436096191405	27.02755737304684	1747.265502929688	280.1373291015624	-133.5629425048828	1743.61572265625	253.0233612060545	-212.971435546875	1596.24267578125	263.623077392578	121.3415603637695	1615.811157226562	286.6460571289061	-32.34606933593755	1588.73291015625	382.4257507324218	817.32421875	1528.047973632812	303.0274047851562	-884.3812255859375	1558.419555664062	212.8665771484373	
118	0.975	-156.9750061035157	1797.153686523438	377.0127563476561	-226.0828247070313	102.038330078125	237.5821838378906	-42.09548187255864	1413.682006835938	426.2311401367186	76.71761322021482	120.4494552612305	269.7006530761719	155.397232055664	557.5647583007812	246.2235565185547	-46.23138427734377	1380.947998046875	177.4861907958984	-500.7611999511719	1508.060913085938	240.7973632812499	-778.8125610351562	1588.99169921875	259.0821533203123	-48.81167602539065	1621.010498046875	227.0242614746093	89.57125091552729	1109.682006835938	408.1679077148437	172.9423065185546	59.02570724487308	457.3373413085938	-252.4987335205079	59.69805908203128	459.5850524902343	711.9716186523438	1493.403442382812	314.6804504394531	14.58676719665525	1144.273559570312	225.9835357666015	-106.6603317260742	1146.736328125	227.9993591308593	-187.8630981445313	1121.1015625	405.1652526855468	61.684700012207	517.266357421875	279.5103149414062	-132.5137023925782	527.5568237304688	290.8992919921874	-223.0082244873047	580.2037353515625	253.8205261230468	160.1452484130859	101.7074813842774	229.774154663086	-145.4008331298828	119.8414459228516	279.0708312988281	105.5513229370117	70.50624084472658	177.4215393066406	-161.9353942871094	64.68083953857423	186.7272491455078	429.6259155273437	1466.175170898438	322.8518371582031	437.6019287109374	1519.989990234375	274.1618041992187	-504.5996093750001	1465.079956054688	307.5699157714842	-774.8067626953125	1528.90380859375	230.7224273681639	706.9923706054688	1560.24951171875	341.0713806152344	-8.996168136596731	1797.963500976562	417.0535278320311	26.99453163146969	1747.294921875	280.103057861328	-133.5889739990235	1743.6044921875	253.0028839111327	-212.9952850341797	1596.238647460938	263.6155700683593	121.3102188110351	1615.806030273438	286.6508483886718	-32.37467193603521	1588.728881835938	382.4323425292968	817.2887573242188	1528.055053710938	302.918701171875	-884.4335327148438	1558.755615234375	213.0096588134764	
119	0.9833333333333333	-156.9750366210938	1797.154174804688	377.0129394531249	-226.0724182128907	102.0375900268555	237.5791625976562	-42.1356925964356	1413.67578125	426.2421569824218	76.721565246582	120.4481506347656	269.7171020507812	155.419189453125	557.5786743164062	246.2369232177734	-46.25630950927737	1380.9501953125	177.4826660156249	-500.8110656738282	1508.14208984375	240.8012542724608	-778.8244018554688	1589.183715820312	259.2084655761716	-48.84645462036136	1621.00634765625	227.0266876220702	89.58325958251947	1109.680908203125	408.1544494628906	172.9404296874999	59.01950454711917	457.3472595214844	-252.4916381835938	59.69495391845706	459.5895690917968	711.9380493164062	1493.364135742188	314.5433044433594	14.59263896942136	1144.282470703125	225.9843292236328	-106.6391525268555	1146.751831054688	227.9863128662109	-187.8440093994141	1121.087524414062	405.1564636230468	61.71738433837887	517.265869140625	279.5089111328124	-132.5029754638672	527.5531005859375	290.8895874023437	-222.9791412353516	580.1920166015625	253.7884826660156	160.1474914550781	101.6964340209961	229.7768249511719	-145.3907623291016	119.8357467651367	279.0721130371094	105.5592880249023	70.49945068359376	177.4129486083984	-161.9402160644532	64.67552185058595	186.7230834960937	429.5832824707031	1466.131713867188	322.7867126464843	437.5545043945312	1519.969116210938	274.1027832031249	-504.6466979980469	1465.136840820312	307.5557556152342	-774.8640747070312	1529.119384765625	230.7799530029295	706.966552734375	1560.146362304688	341.0335998535156	-9.034540176391653	1797.964233398438	417.0348205566405	26.96588325500485	1747.226196289062	280.0737304687499	-133.5990753173828	1743.60107421875	252.9753265380858	-213.0144500732422	1596.244262695312	263.6110229492186	121.2663955688476	1615.782348632812	286.6388854980468	-32.40129852294927	1588.719482421875	382.4274902343749	817.2625122070312	1528.06396484375	302.8187561035156	-884.4720458984375	1559.064453125	213.1222991943357	
